<svg id="stroke" xmlns="http://www.w3.org/2000/svg" xmlns:xlink="http://www.w3.org/1999/xlink" viewBox="0 0 289 267"><defs><style>.cls-1,.cls-5{fill:#4b4c4d;}.cls-1,.cls-10,.cls-11,.cls-2,.cls-3,.cls-4,.cls-9{stroke:#000;}.cls-1,.cls-3,.cls-4,.cls-9{stroke-miterlimit:10;}.cls-1,.cls-10,.cls-11,.cls-9{stroke-width:3.73px;}.cls-10,.cls-11,.cls-2{stroke-linecap:round;stroke-linejoin:round;}.cls-2{stroke-width:11.25px;}.cls-10,.cls-3{fill:#95979a;}.cls-3,.cls-4{stroke-width:3.72px;}.cls-11,.cls-4{fill:#e8c0dc;}.cls-6{clip-path:url(#clip-path);}.cls-7{fill:#686969;}.cls-8{fill:#fff;}.cls-9{fill:none;}</style><clipPath id="clip-path"><circle class="cls-1" cx="117.43" cy="144.26" r="66.86"/></clipPath></defs><title>Artboard 1</title><g id="silhouette"><path id="silhouette-2" data-name="silhouette" class="cls-2" d="M230.06,52.47c-1.32-.13-4.53-.19-9.8-.19l-9.17,0c-3.76,0-7.78,0-11.79,0-7.14,0-17.25-.06-23.82-.54l0,0c-.53-.4-1.07-.8-1.62-1.19q-1.09-.81-2.25-1.56h0a56.54,56.54,0,0,0-29.15-8.89h0c-.87,0-1.76,0-2.63,0-25.34,0-47.61,11.33-59.58,30.32-.25.4-.49.81-.73,1.21h0L74.07,75.4c-4.64,3.22-10,6.08-12.52,6.63a2.37,2.37,0,0,0-1,.48,1.86,1.86,0,0,0-.16,2.73,4.78,4.78,0,0,0,.84.73c2.43,1.64,7.32,1.68,13.71,0l1.71-.46h0l.06.26a10.68,10.68,0,0,0,2.18,3.93c-1.18.84-2.33,1.7-3.45,2.61a3.83,3.83,0,0,0-.61-.3,3.71,3.71,0,0,0-1.42-.25c-2.88,0-7,2.32-9.54,5.41-1.1,1.32-2.85,4-2.31,6.86a7.77,7.77,0,0,0,.84,2.35c-.42.61-.82,1.23-1.22,1.85-.16.24-.31.48-.46.72-.5.79-1,1.6-1.44,2.42l-.36.61c-.54,1-1.06,2-1.55,3a1.09,1.09,0,0,1-.08.15c-.53,1.1-1,2.21-1.51,3.34,0,0,0,0,0,0-.44,1-.85,2.12-1.24,3.2l-.32.93c-.27.8-.54,1.6-.78,2.41-.12.4-.23.8-.35,1.2-.2.74-.4,1.48-.58,2.22-.11.45-.21.89-.31,1.33-.16.73-.31,1.46-.44,2.19-.09.46-.17.92-.25,1.38-.12.74-.23,1.49-.33,2.24-.06.45-.12.9-.17,1.36-.09.82-.15,1.64-.21,2.47,0,.39-.07.78-.09,1.17-.07,1.22-.11,2.45-.11,3.69s0,2.25.09,3.37c0,.59.08,1.17.13,1.76s.06,1,.12,1.55c.08.79.18,1.58.29,2.37,0,.29.07.58.11.87q.21,1.38.48,2.73c0,.15.05.3.08.45.2,1,.42,2,.67,3l0,.16c.07.28.14.56.22.84a14.4,14.4,0,0,0-8.36-3,10.38,10.38,0,0,0-8.11,3.76c-2.25,2.76-3,6.57-2.15,10.74,2,9.86,18.86,28.27,30.7,31.11a12.07,12.07,0,0,0,2.71.35,4.72,4.72,0,0,0,4.26-2c1.55-2.36,1.06-6.24.32-8.89a66.56,66.56,0,0,0,44.44,17.7,9.44,9.44,0,0,0,2.21,5c1.39,1.44,3.42,2.14,6.19,2.14a17.19,17.19,0,0,0,2.09-.14l.45-.07.15,0c.5-.08.94-.17,1.36-.28l.58-.16a12.45,12.45,0,0,0,1.33-.49l.09,0,.29-.12a12.6,12.6,0,0,0,1.55-.83l.17-.1c.39-.25.8-.55,1.2-.86l.27-.23.06-.05c.31-.27.61-.54.89-.82l.07-.07.22-.22c.32-.33.62-.68.89-1l.1-.12c.29-.37.57-.76.85-1.18l.11-.17h4.65a65.49,65.49,0,0,0,23.55-4.51l-.32.58c-11.21,20.52-35.55,36.29-56.61,36.69-10.5.19-18.63-3.76-23-11.06-5.77-9.69-14.78-13.21-20.7-11.69-4.33,1.12-6.92,4.77-7.09,10-.14,4.53,3.45,10.14,9.87,15.38,8.74,7.15,22.53,13.18,36.56,13.18a44.65,44.65,0,0,0,10.39-1.19c29.11-6.89,55.78-29.59,64.84-55.21l1.57-5c9.36-6.47,21.07-21.08,23.83-53.93,1.7-20.29-.67-43.22-6-58.42a88.68,88.68,0,0,0-5.57-12.6q-1.06-2-2.22-3.84l-.29-.47A34.6,34.6,0,0,0,205.91,73a22.85,22.85,0,0,0,6.6-1c9.68-2.9,15.66-9,18-13.7a9.18,9.18,0,0,0,1.19-4A1.87,1.87,0,0,0,230.06,52.47Z"/><path d="M277.2,53.56,241.55,13.61a35,35,0,0,0-45.66-5.74L168.43,26.34a35,35,0,0,0-14.61,36.73l14,62.2a35,35,0,0,0,27.23,26.63l34.37,6.94a35,35,0,0,0,40.37-24l14.74-47.65A35,35,0,0,0,277.2,53.56Z"/><path d="M20.24,39.37l35-26.66a44,44,0,0,1,58.67,4.88l10.61,11.3a43.94,43.94,0,0,1,7.64,49l-24.51,51.54A44,44,0,0,1,68.8,154.45l-19.06.36A43.93,43.93,0,0,1,5,113.32L3,76.77A43.93,43.93,0,0,1,20.24,39.37Z"/></g><g id="ears"><path class="cls-3" d="M272,54.28,240.11,18.6a35,35,0,0,0-45.66-5.74L171,28.63a35,35,0,0,0-14.61,36.74l12.66,56.26a35,35,0,0,0,27.23,26.63l29.54,6a35,35,0,0,0,40.37-24l13.09-42.32A35,35,0,0,0,272,54.28Z"/><path class="cls-3" d="M24.27,41.84l30.3-23.08a43.94,43.94,0,0,1,58.67,4.87l7.4,7.89a43.93,43.93,0,0,1,7.65,48.94l-21.81,45.86a43.92,43.92,0,0,1-38.84,25.06l-14.18.27A43.93,43.93,0,0,1,8.75,110.16L7,79.24A44,44,0,0,1,24.27,41.84Z"/><path class="cls-4" d="M260.05,57.68,237.42,30.4a35,35,0,0,0-47.42-6l-10,7.21a35,35,0,0,0-13.66,36.19l10.79,47.18a35,35,0,0,0,26,26.25l13.81,3.3a35,35,0,0,0,42-25.11L267,89A35,35,0,0,0,260.05,57.68Z"/><path class="cls-4" d="M33.21,43.68,56.45,27.42a43.94,43.94,0,0,1,56,4.68l5.29,5.21a43.94,43.94,0,0,1,8.75,50.44L111.43,119A43.94,43.94,0,0,1,71.5,143.79l-11.56-.09a44,44,0,0,1-43.39-39.84L14.66,83.79A44,44,0,0,1,33.21,43.68Z"/></g><g id="ball"><circle class="cls-5" cx="117.43" cy="144.26" r="66.86"/><g class="cls-6"><path class="cls-7" d="M96.25,87.86a50.67,50.67,0,0,0-20.91,4.5,66.73,66.73,0,0,0-19.8,77.16A51,51,0,1,0,96.25,87.86Z"/><path class="cls-8" d="M91.79,178a27.59,27.59,0,0,1-7.94-.56c-.84-8.44-1.39-19,2.87-37.38A267.15,267.15,0,0,0,103,174.83,31.64,31.64,0,0,1,91.79,178m-13-2.13C56.72,165.82,52.66,142,60.08,123.67c.28,18.14,5.36,32.29,18.75,52.2m29.93-4.48c3.5-15.12,9.33-29.57,12.76-44.7a30.15,30.15,0,0,0,.21-12.56c10.22,16,9,40.76-13,57.26M63.19,117.58c10-15.36,29.07-27.85,50-12.51-.14,0-13.43.6-3.78,14.89,5.22,7.72,5.56,13.92,1.43,26.52-1.49,6.21-1.94,8.08-3.27,14.48C101.21,145.72,96,132.75,91.9,116.17c3.61-.53,7.71-1.13,5.6-3.46-.26-.29-19.29,1.6-19.47,1.63-1.46.25-1.72,2-1.72,2-.15,1.36.09,1.35,4.22,1.1a111.85,111.85,0,0,0,4.27,17.07c-1.94,8.07-4,16.41-4.23,29.33-8.67-17.26-12.14-29.24-12.8-44.23,1.23-.74,2.88-.45,4-1.56.74-.76,1.1-2.48.18-2.68-3.28-.7-5.78,1.62-8.72,2.23m30.12-22.7c-32.8,2.7-54.1,52.13-25.09,78,29.4,26.21,65.73-7.66,64.47-39.09-1-24.36-21.15-39.79-39.38-38.91"/></g><circle class="cls-9" cx="117.43" cy="144.26" r="66.86"/></g><g id="wapuu"><path class="cls-10" d="M181.41,198.57a75,75,0,0,1-15.49,8.22l-.32.58c-11.21,20.52-35.55,36.29-56.61,36.69-10.5.19-18.63-3.76-23-11.06-5.77-9.69-14.78-13.21-20.7-11.69-4.33,1.12-6.92,4.77-7.09,10-.14,4.53,3.45,10.14,9.87,15.38,8.74,7.15,22.53,13.18,36.56,13.18a44.65,44.65,0,0,0,10.39-1.19c29.11-6.89,55.78-29.59,64.84-55.21l1.57-5Z"/><path class="cls-11" d="M79.48,71.63,74.07,75.4c-4.64,3.22-10,6.08-12.52,6.63a2.37,2.37,0,0,0-1,.48,1.86,1.86,0,0,0-.16,2.73,4.78,4.78,0,0,0,.84.73c2.43,1.64,7.32,1.68,13.71,0l1.71-.46C75.54,81.54,76.52,76.78,79.48,71.63Z"/><path class="cls-10" d="M142.55,82.31a46.59,46.59,0,0,1,16.46,3,46.65,46.65,0,0,0-17-3h0c-11.3,0-22.16,3.62-29,9.68-5.34,4.7-5.62,8.32-4.92,10.53,1,3.18,4.73,5.56,9.48,6.06.43,0,.89.07,1.38.07,3.13,0,7.19-.91,11.48-1.86,5.25-1.16,11.19-2.48,16.72-2.48a27.16,27.16,0,0,1,5.67.54c11.56,2.39,19.41,9.49,31.29,20.23l1.48,1.33-1.48-1.33-3.7-3.34a66.64,66.64,0,0,1,1.21,41.33,14.69,14.69,0,0,1,5.21,4c-3.13-4.05-10.15-6.66-17.87-6.66-1.12,0-2.24.05-3.34.16a29.75,29.75,0,0,0-24.24,16.56l-1.13,2.25h0q.21.6.36,1.14c.21.74.42,1.48.61,2.26l0,.15,0,.1c.19.74.34,1.42.47,2.06a34.27,34.27,0,0,1-1.14,19.12s0,.05,0,.09a16.16,16.16,0,0,1-.48,1.89c-.07.23-.15.48-.25.75l0,.05c-.12.35-.27.74-.46,1.2l-.24.56-.16.34,0,.1-.36.71c-.07.14-.15.27-.23.41-.16.29-.34.59-.52.88l0,.07,0,0h4.65c9.37,0,23.75-2.21,39-12.73,9.37-6.45,21.12-21,23.88-54,1.7-20.29-.67-43.22-6-58.42a88.68,88.68,0,0,0-5.57-12.6q-1.06-2-2.22-3.84l-.29-.47h0a63.67,63.67,0,0,0-15.68-17.47h0l0,0c-.53-.4-1.07-.8-1.62-1.19q-1.09-.81-2.25-1.56h0a56.54,56.54,0,0,0-29.15-8.89h0c-.87,0-1.76,0-2.63,0-25.34,0-47.61,11.33-59.58,30.32-3.6,5.72-4.82,11-3.51,15.33A10,10,0,0,0,81.87,92a4,4,0,0,0,1.63.29c4.51,0,18-5.1,22.42-13.15a27.37,27.37,0,0,0,14.77,4c6.32,0,12.58-1.73,18.41-3.59l-2.32.72"/><path class="cls-11" d="M173.73,51.71a6.32,6.32,0,0,0-.67,0,1.84,1.84,0,0,0-1.51,1,1.88,1.88,0,0,0,.07,1.81,20.17,20.17,0,0,0,4,4.24l.47.4C189.47,70.62,199.69,73,205.91,73a22.85,22.85,0,0,0,6.6-1c9.68-2.9,15.66-9,18-13.7a9.18,9.18,0,0,0,1.19-4,1.87,1.87,0,0,0-1.67-1.86c-1.32-.13-4.53-.19-9.8-.19l-9.17,0c-3.76,0-7.78,0-11.79,0-7.4,0-18-.06-24.53-.59-.36,0-.71,0-1,0Z"/><path class="cls-10" d="M73.4,91.74c-2.88,0-7,2.32-9.54,5.41-1.1,1.32-2.85,4-2.31,6.86.62,3.31,2.81,5.2,6,5.2a11.33,11.33,0,0,0,7.66-3.54,10.11,10.11,0,0,0,3-9.1A6,6,0,0,0,74.82,92a3.71,3.71,0,0,0-1.42-.25Z"/><path d="M102.61,68.34c-3,2.23-2.08,5,1.24,5.39s3.58.64,6.64-1.66c3.32-2.48,3.73-6.63,0-6.22S104.27,67.1,102.61,68.34Z"/><circle cx="90.17" cy="70" r="3.73"/><circle cx="133.3" cy="59.63" r="3.73"/><path class="cls-10" d="M121.44,159.27a7.08,7.08,0,0,0-4,1.25c-7.4,4.93-5.16,14.3-3,23.36.61,2.53,1.23,5.14,1.6,7.54a55.18,55.18,0,0,1,.24,9.94c-.19,5.81-.39,11.8,2.49,14.77,1.39,1.44,3.42,2.14,6.19,2.14a17.19,17.19,0,0,0,2.09-.14l.45-.07.15,0c.5-.08.94-.17,1.36-.28l.58-.16a12.45,12.45,0,0,0,1.33-.49l.09,0,.29-.12a12.6,12.6,0,0,0,1.55-.83l.17-.1c.39-.25.8-.55,1.2-.86l.27-.23.06-.05c.31-.27.61-.54.89-.82l.07-.07.22-.22c.32-.33.62-.68.89-1l.1-.12c.29-.37.57-.76.85-1.18a2.39,2.39,0,0,0,.13-.21l0-.07c.18-.29.36-.59.52-.88.08-.14.16-.27.23-.41l.36-.71,0-.1.16-.34.24-.56c.19-.46.34-.85.46-1.2l0-.05c.1-.27.18-.52.25-.75a16.16,16.16,0,0,0,.48-1.89s0-.06,0-.09a34.27,34.27,0,0,0,1.14-19.12c-.13-.64-.28-1.32-.47-2.06l0-.1,0-.15c-.19-.78-.4-1.52-.61-2.26-1.8-6.47-10.9-21.23-19.14-21.23Z"/><path class="cls-10" d="M44.43,158.36a14.58,14.58,0,0,1,8.83,3.3c5.41,4.16,15.37,23.29,18.25,29.86,1,2.2,2.31,7.74.33,10.77a4.72,4.72,0,0,1-4.26,2,12.07,12.07,0,0,1-2.71-.35c-11.84-2.84-28.66-21.25-30.7-31.11-.86-4.17-.1-8,2.15-10.74a10.38,10.38,0,0,1,8.11-3.76"/></g></svg>